<svg width="390" height="200" viewBox="0 0 390 200" fill="none"
    xmlns="http://www.w3.org/2000/svg">
    <rect x="71" width="100" height="50" rx="5" fill="#D9D9D9"/>
    <rect y="74" width="100" height="50" rx="5" fill="#D9D9D9"/>
    <rect x="221" y="150" width="100" height="50" rx="5" fill="#D9D9D9"/>
    <rect x="71" y="150" width="100" height="50" rx="5" fill="#D9D9D9"/>
    <rect x="145" y="74" width="100" height="50" rx="5" fill="#D9D9D9"/>
    <rect x="290" y="74" width="100" height="50" rx="5" fill="#D9D9D9"/>
    <rect x="221" width="100" height="50" rx="5" fill="#D9D9D9"/>
    <path d="M261.847 30.143C260.859 30.143 260.014 29.948 259.312 29.558C258.61 29.168 258.068 28.622 257.687 27.92C257.314 27.2093 257.128 26.373 257.128 25.411C257.128 24.4577 257.314 23.63 257.687 22.928C258.068 22.2173 258.61 21.667 259.312 21.277C260.014 20.887 260.859 20.692 261.847 20.692C262.453 20.692 263.034 20.7873 263.589 20.978C264.143 21.1687 264.598 21.4287 264.954 21.758L264.33 23.357C263.94 23.0537 263.545 22.8327 263.147 22.694C262.757 22.5467 262.345 22.473 261.912 22.473C261.036 22.473 260.373 22.7287 259.923 23.24C259.481 23.7427 259.26 24.4663 259.26 25.411C259.26 26.3557 259.481 27.0837 259.923 27.595C260.373 28.1063 261.036 28.362 261.912 28.362C262.345 28.362 262.757 28.2927 263.147 28.154C263.545 28.0067 263.94 27.7813 264.33 27.478L264.954 29.077C264.598 29.3977 264.143 29.6577 263.589 29.857C263.034 30.0477 262.453 30.143 261.847 30.143ZM270.7 30.143C269.981 30.143 269.3 30.052 268.659 29.87C268.026 29.688 267.498 29.441 267.073 29.129L267.658 27.543C268.065 27.829 268.529 28.0543 269.049 28.219C269.578 28.3837 270.128 28.466 270.7 28.466C271.324 28.466 271.77 28.3707 272.039 28.18C272.316 27.9807 272.455 27.7337 272.455 27.439C272.455 27.1877 272.36 26.9883 272.169 26.841C271.978 26.6937 271.645 26.568 271.168 26.464L269.699 26.152C268.061 25.8053 267.242 24.956 267.242 23.604C267.242 23.0233 267.398 22.5163 267.71 22.083C268.022 21.641 268.455 21.2987 269.01 21.056C269.573 20.8133 270.223 20.692 270.96 20.692C271.593 20.692 272.186 20.783 272.741 20.965C273.296 21.147 273.755 21.4027 274.119 21.732L273.534 23.214C272.823 22.6507 271.961 22.369 270.947 22.369C270.401 22.369 269.976 22.4773 269.673 22.694C269.378 22.902 269.231 23.175 269.231 23.513C269.231 23.7643 269.322 23.968 269.504 24.124C269.686 24.28 270.002 24.4057 270.453 24.501L271.922 24.813C273.603 25.177 274.444 26.0003 274.444 27.283C274.444 27.855 274.288 28.3577 273.976 28.791C273.673 29.2157 273.239 29.5493 272.676 29.792C272.121 30.026 271.463 30.143 270.7 30.143ZM280.393 30.143C279.674 30.143 278.993 30.052 278.352 29.87C277.719 29.688 277.191 29.441 276.766 29.129L277.351 27.543C277.758 27.829 278.222 28.0543 278.742 28.219C279.271 28.3837 279.821 28.466 280.393 28.466C281.017 28.466 281.463 28.3707 281.732 28.18C282.009 27.9807 282.148 27.7337 282.148 27.439C282.148 27.1877 282.053 26.9883 281.862 26.841C281.671 26.6937 281.338 26.568 280.861 26.464L279.392 26.152C277.754 25.8053 276.935 24.956 276.935 23.604C276.935 23.0233 277.091 22.5163 277.403 22.083C277.715 21.641 278.148 21.2987 278.703 21.056C279.266 20.8133 279.916 20.692 280.653 20.692C281.286 20.692 281.879 20.783 282.434 20.965C282.989 21.147 283.448 21.4027 283.812 21.732L283.227 23.214C282.516 22.6507 281.654 22.369 280.64 22.369C280.094 22.369 279.669 22.4773 279.366 22.694C279.071 22.902 278.924 23.175 278.924 23.513C278.924 23.7643 279.015 23.968 279.197 24.124C279.379 24.28 279.695 24.4057 280.146 24.501L281.615 24.813C283.296 25.177 284.137 26.0003 284.137 27.283C284.137 27.855 283.981 28.3577 283.669 28.791C283.366 29.2157 282.932 29.5493 282.369 29.792C281.814 30.026 281.156 30.143 280.393 30.143Z" fill="#393535"/>
    <path d="M169.657 104V94.835H171.152L175.728 100.672V94.835H177.6V104H176.118L171.529 98.15V104H169.657ZM183.956 104.143C183.202 104.143 182.552 104.009 182.006 103.74C181.469 103.463 181.053 103.077 180.758 102.583C180.472 102.08 180.329 101.491 180.329 100.815C180.329 100.156 180.468 99.58 180.745 99.086C181.031 98.5833 181.417 98.1933 181.902 97.916C182.396 97.63 182.964 97.487 183.605 97.487C184.533 97.487 185.269 97.7817 185.815 98.371C186.361 98.9517 186.634 99.7403 186.634 100.737V101.231H182.201C182.271 101.734 182.453 102.102 182.747 102.336C183.051 102.561 183.467 102.674 183.995 102.674C184.342 102.674 184.693 102.622 185.048 102.518C185.404 102.414 185.724 102.254 186.01 102.037L186.53 103.35C186.21 103.593 185.815 103.788 185.347 103.935C184.888 104.074 184.424 104.143 183.956 104.143ZM183.683 98.787C183.267 98.787 182.929 98.9127 182.669 99.164C182.418 99.4153 182.262 99.7663 182.201 100.217H185.009C184.957 99.2637 184.515 98.787 183.683 98.787ZM188.193 104L190.884 100.711L188.362 97.617H190.65L192.002 99.372L193.354 97.617H195.642L193.12 100.711L195.824 104H193.523L192.002 102.076L190.481 104H188.193ZM200.875 104.143C199.081 104.143 198.184 103.272 198.184 101.53V99.086H196.975V97.617H198.184V95.745H200.147V97.617H202.032V99.086H200.147V101.452C200.147 101.816 200.23 102.089 200.394 102.271C200.568 102.453 200.841 102.544 201.213 102.544C201.326 102.544 201.443 102.531 201.564 102.505C201.694 102.479 201.833 102.444 201.98 102.401L202.266 103.831C202.084 103.926 201.868 104 201.616 104.052C201.365 104.113 201.118 104.143 200.875 104.143ZM204.5 104V101.92H206.606V104H204.5ZM209.676 96.382V94.549H211.795V96.382H209.676ZM208.402 106.509L208.272 105.105L208.883 105.04C209.472 104.971 209.767 104.633 209.767 104.026V97.617H211.73V103.766C211.73 104.364 211.639 104.854 211.457 105.235C211.283 105.616 210.993 105.907 210.586 106.106C210.187 106.305 209.645 106.427 208.961 106.47L208.402 106.509ZM217.065 104.143C216.502 104.143 215.978 104.078 215.492 103.948C215.007 103.818 214.604 103.64 214.283 103.415L214.751 102.141C215.072 102.34 215.436 102.501 215.843 102.622C216.259 102.735 216.671 102.791 217.078 102.791C217.442 102.791 217.711 102.735 217.884 102.622C218.058 102.501 218.144 102.345 218.144 102.154C218.144 101.851 217.923 101.66 217.481 101.582L216.116 101.335C215.57 101.24 215.154 101.045 214.868 100.75C214.582 100.455 214.439 100.07 214.439 99.593C214.439 99.1597 214.561 98.787 214.803 98.475C215.046 98.163 215.38 97.9203 215.804 97.747C216.229 97.5737 216.719 97.487 217.273 97.487C217.733 97.487 218.179 97.5477 218.612 97.669C219.046 97.7817 219.418 97.9637 219.73 98.215L219.236 99.476C218.976 99.2853 218.664 99.1293 218.3 99.008C217.945 98.8867 217.611 98.826 217.299 98.826C216.909 98.826 216.628 98.891 216.454 99.021C216.281 99.1423 216.194 99.2983 216.194 99.489C216.194 99.7923 216.398 99.983 216.805 100.061L218.17 100.308C218.734 100.403 219.163 100.594 219.457 100.88C219.752 101.157 219.899 101.539 219.899 102.024C219.899 102.691 219.639 103.211 219.119 103.584C218.599 103.957 217.915 104.143 217.065 104.143Z" fill="#393535"/>
    <path d="M13.0829 104.13L12.9399 102.492L13.9409 102.44C14.6342 102.397 14.9809 102.033 14.9809 101.348V94.835H16.9959V101.322C16.9959 103.038 16.0859 103.957 14.2659 104.078L13.0829 104.13ZM22.1965 104.143C21.7198 104.143 21.2995 104.052 20.9355 103.87C20.5715 103.688 20.2812 103.441 20.0645 103.129C19.8565 102.817 19.7525 102.466 19.7525 102.076C19.7525 101.617 19.8738 101.248 20.1165 100.971C20.3592 100.694 20.7535 100.499 21.2995 100.386C21.8455 100.265 22.5692 100.204 23.4705 100.204H23.9385V99.983C23.9385 99.6017 23.8518 99.333 23.6785 99.177C23.5052 99.0123 23.2105 98.93 22.7945 98.93C22.4478 98.93 22.0795 98.9863 21.6895 99.099C21.3082 99.203 20.9268 99.3633 20.5455 99.58L20.0125 98.267C20.2378 98.1197 20.5108 97.9853 20.8315 97.864C21.1608 97.7427 21.5032 97.6517 21.8585 97.591C22.2138 97.5217 22.5518 97.487 22.8725 97.487C23.8605 97.487 24.5972 97.7123 25.0825 98.163C25.5678 98.605 25.8105 99.294 25.8105 100.23V104H23.9775V103.038C23.8475 103.376 23.6265 103.645 23.3145 103.844C23.0112 104.043 22.6385 104.143 22.1965 104.143ZM22.6385 102.83C23.0025 102.83 23.3102 102.704 23.5615 102.453C23.8128 102.202 23.9385 101.877 23.9385 101.478V101.218H23.4835C22.8162 101.218 22.3438 101.279 22.0665 101.4C21.7892 101.513 21.6505 101.712 21.6505 101.998C21.6505 102.241 21.7328 102.44 21.8975 102.596C22.0708 102.752 22.3178 102.83 22.6385 102.83ZM30.4614 104L27.6794 97.617H29.7464L31.3454 101.673L32.9964 97.617H34.9334L32.1124 104H30.4614ZM38.9167 104.143C38.4401 104.143 38.0197 104.052 37.6557 103.87C37.2917 103.688 37.0014 103.441 36.7847 103.129C36.5767 102.817 36.4727 102.466 36.4727 102.076C36.4727 101.617 36.5941 101.248 36.8367 100.971C37.0794 100.694 37.4737 100.499 38.0197 100.386C38.5657 100.265 39.2894 100.204 40.1907 100.204H40.6587V99.983C40.6587 99.6017 40.5721 99.333 40.3987 99.177C40.2254 99.0123 39.9307 98.93 39.5147 98.93C39.1681 98.93 38.7997 98.9863 38.4097 99.099C38.0284 99.203 37.6471 99.3633 37.2657 99.58L36.7327 98.267C36.9581 98.1197 37.2311 97.9853 37.5517 97.864C37.8811 97.7427 38.2234 97.6517 38.5787 97.591C38.9341 97.5217 39.2721 97.487 39.5927 97.487C40.5807 97.487 41.3174 97.7123 41.8027 98.163C42.2881 98.605 42.5307 99.294 42.5307 100.23V104H40.6977V103.038C40.5677 103.376 40.3467 103.645 40.0347 103.844C39.7314 104.043 39.3587 104.143 38.9167 104.143ZM39.3587 102.83C39.7227 102.83 40.0304 102.704 40.2817 102.453C40.5331 102.202 40.6587 101.877 40.6587 101.478V101.218H40.2037C39.5364 101.218 39.0641 101.279 38.7867 101.4C38.5094 101.513 38.3707 101.712 38.3707 101.998C38.3707 102.241 38.4531 102.44 38.6177 102.596C38.7911 102.752 39.0381 102.83 39.3587 102.83ZM48.8051 104.143C48.0857 104.143 47.4054 104.052 46.7641 103.87C46.1314 103.688 45.6027 103.441 45.1781 103.129L45.7631 101.543C46.1704 101.829 46.6341 102.054 47.1541 102.219C47.6827 102.384 48.2331 102.466 48.8051 102.466C49.4291 102.466 49.8754 102.371 50.1441 102.18C50.4214 101.981 50.5601 101.734 50.5601 101.439C50.5601 101.188 50.4647 100.988 50.2741 100.841C50.0834 100.694 49.7497 100.568 49.2731 100.464L47.8041 100.152C46.1661 99.8053 45.3471 98.956 45.3471 97.604C45.3471 97.0233 45.5031 96.5163 45.8151 96.083C46.1271 95.641 46.5604 95.2987 47.1151 95.056C47.6784 94.8133 48.3284 94.692 49.0651 94.692C49.6977 94.692 50.2914 94.783 50.8461 94.965C51.4007 95.147 51.8601 95.4027 52.2241 95.732L51.6391 97.214C50.9284 96.6507 50.0661 96.369 49.0521 96.369C48.5061 96.369 48.0814 96.4773 47.7781 96.694C47.4834 96.902 47.3361 97.175 47.3361 97.513C47.3361 97.7643 47.4271 97.968 47.6091 98.124C47.7911 98.28 48.1074 98.4057 48.5581 98.501L50.0271 98.813C51.7084 99.177 52.5491 100 52.5491 101.283C52.5491 101.855 52.3931 102.358 52.0811 102.791C51.7777 103.216 51.3444 103.549 50.7811 103.792C50.2264 104.026 49.5677 104.143 48.8051 104.143ZM58.1602 104.143C57.4669 104.143 56.8602 104.009 56.3402 103.74C55.8289 103.463 55.4345 103.073 55.1572 102.57C54.8799 102.067 54.7412 101.474 54.7412 100.789C54.7412 100.104 54.8799 99.515 55.1572 99.021C55.4345 98.527 55.8289 98.15 56.3402 97.89C56.8602 97.6213 57.4669 97.487 58.1602 97.487C58.5675 97.487 58.9792 97.5477 59.3952 97.669C59.8112 97.7903 60.1492 97.9637 60.4092 98.189L59.8632 99.541C59.6465 99.3677 59.4039 99.2333 59.1352 99.138C58.8665 99.034 58.6065 98.982 58.3552 98.982C57.8439 98.982 57.4452 99.1423 57.1592 99.463C56.8819 99.775 56.7432 100.221 56.7432 100.802C56.7432 101.374 56.8819 101.825 57.1592 102.154C57.4452 102.475 57.8439 102.635 58.3552 102.635C58.5979 102.635 58.8535 102.587 59.1222 102.492C59.3995 102.397 59.6465 102.258 59.8632 102.076L60.4092 103.428C60.1492 103.653 59.8112 103.831 59.3952 103.961C58.9792 104.082 58.5675 104.143 58.1602 104.143ZM62.6262 104V97.617H64.5502V98.722C64.8535 97.9767 65.5035 97.565 66.5002 97.487L67.0722 97.448L67.1892 99.099L66.0842 99.216C65.1135 99.3113 64.6282 99.8053 64.6282 100.698V104H62.6262ZM69.2706 96.382V94.549H71.3896V96.382H69.2706ZM69.3486 104V97.617H71.3116V104H69.3486ZM74.1921 106.34V97.617H76.1161V98.566C76.2895 98.2367 76.5538 97.9767 76.9091 97.786C77.2731 97.5867 77.6805 97.487 78.1311 97.487C78.6858 97.487 79.1711 97.6213 79.5871 97.89C80.0118 98.1587 80.3411 98.54 80.5751 99.034C80.8091 99.528 80.9261 100.117 80.9261 100.802C80.9261 101.487 80.8091 102.08 80.5751 102.583C80.3411 103.077 80.0118 103.463 79.5871 103.74C79.1711 104.009 78.6858 104.143 78.1311 104.143C77.7065 104.143 77.3165 104.052 76.9611 103.87C76.6145 103.688 76.3458 103.445 76.1551 103.142V106.34H74.1921ZM77.5461 102.674C77.9621 102.674 78.3001 102.522 78.5601 102.219C78.8201 101.916 78.9501 101.443 78.9501 100.802C78.9501 100.169 78.8201 99.7057 78.5601 99.411C78.3001 99.1077 77.9621 98.956 77.5461 98.956C77.1215 98.956 76.7791 99.1077 76.5191 99.411C76.2591 99.7057 76.1291 100.169 76.1291 100.802C76.1291 101.443 76.2591 101.916 76.5191 102.219C76.7791 102.522 77.1215 102.674 77.5461 102.674ZM86.5612 104.143C84.7672 104.143 83.8702 103.272 83.8702 101.53V99.086H82.6612V97.617H83.8702V95.745H85.8332V97.617H87.7182V99.086H85.8332V101.452C85.8332 101.816 85.9156 102.089 86.0802 102.271C86.2536 102.453 86.5266 102.544 86.8992 102.544C87.0119 102.544 87.1289 102.531 87.2502 102.505C87.3802 102.479 87.5189 102.444 87.6662 102.401L87.9522 103.831C87.7702 103.926 87.5536 104 87.3022 104.052C87.0509 104.113 86.8039 104.143 86.5612 104.143Z" fill="#393535"/>
    <path d="M320.319 104V94.835H324.505C325.528 94.835 326.317 95.082 326.871 95.576C327.426 96.07 327.703 96.759 327.703 97.643C327.703 98.3277 327.526 98.8997 327.17 99.359C326.824 99.8097 326.325 100.117 325.675 100.282C326.135 100.421 326.512 100.754 326.806 101.283L328.288 104H326.065L324.479 101.075C324.349 100.841 324.189 100.681 323.998 100.594C323.808 100.499 323.582 100.451 323.322 100.451H322.334V104H320.319ZM322.334 98.995H324.141C325.225 98.995 325.766 98.5617 325.766 97.695C325.766 96.837 325.225 96.408 324.141 96.408H322.334V98.995ZM333.704 104.143C332.95 104.143 332.3 104.009 331.754 103.74C331.217 103.463 330.801 103.077 330.506 102.583C330.22 102.08 330.077 101.491 330.077 100.815C330.077 100.156 330.216 99.58 330.493 99.086C330.779 98.5833 331.165 98.1933 331.65 97.916C332.144 97.63 332.712 97.487 333.353 97.487C334.281 97.487 335.017 97.7817 335.563 98.371C336.109 98.9517 336.382 99.7403 336.382 100.737V101.231H331.949C332.019 101.734 332.201 102.102 332.495 102.336C332.799 102.561 333.215 102.674 333.743 102.674C334.09 102.674 334.441 102.622 334.796 102.518C335.152 102.414 335.472 102.254 335.758 102.037L336.278 103.35C335.958 103.593 335.563 103.788 335.095 103.935C334.636 104.074 334.172 104.143 333.704 104.143ZM333.431 98.787C333.015 98.787 332.677 98.9127 332.417 99.164C332.166 99.4153 332.01 99.7663 331.949 100.217H334.757C334.705 99.2637 334.263 98.787 333.431 98.787ZM341.047 104.143C340.571 104.143 340.15 104.052 339.786 103.87C339.422 103.688 339.132 103.441 338.915 103.129C338.707 102.817 338.603 102.466 338.603 102.076C338.603 101.617 338.725 101.248 338.967 100.971C339.21 100.694 339.604 100.499 340.15 100.386C340.696 100.265 341.42 100.204 342.321 100.204H342.789V99.983C342.789 99.6017 342.703 99.333 342.529 99.177C342.356 99.0123 342.061 98.93 341.645 98.93C341.299 98.93 340.93 98.9863 340.54 99.099C340.159 99.203 339.778 99.3633 339.396 99.58L338.863 98.267C339.089 98.1197 339.362 97.9853 339.682 97.864C340.012 97.7427 340.354 97.6517 340.709 97.591C341.065 97.5217 341.403 97.487 341.723 97.487C342.711 97.487 343.448 97.7123 343.933 98.163C344.419 98.605 344.661 99.294 344.661 100.23V104H342.828V103.038C342.698 103.376 342.477 103.645 342.165 103.844C341.862 104.043 341.489 104.143 341.047 104.143ZM341.489 102.83C341.853 102.83 342.161 102.704 342.412 102.453C342.664 102.202 342.789 101.877 342.789 101.478V101.218H342.334C341.667 101.218 341.195 101.279 340.917 101.4C340.64 101.513 340.501 101.712 340.501 101.998C340.501 102.241 340.584 102.44 340.748 102.596C340.922 102.752 341.169 102.83 341.489 102.83ZM350.598 104.143C349.904 104.143 349.298 104.009 348.778 103.74C348.266 103.463 347.872 103.073 347.595 102.57C347.317 102.067 347.179 101.474 347.179 100.789C347.179 100.104 347.317 99.515 347.595 99.021C347.872 98.527 348.266 98.15 348.778 97.89C349.298 97.6213 349.904 97.487 350.598 97.487C351.005 97.487 351.417 97.5477 351.833 97.669C352.249 97.7903 352.587 97.9637 352.847 98.189L352.301 99.541C352.084 99.3677 351.841 99.2333 351.573 99.138C351.304 99.034 351.044 98.982 350.793 98.982C350.281 98.982 349.883 99.1423 349.597 99.463C349.319 99.775 349.181 100.221 349.181 100.802C349.181 101.374 349.319 101.825 349.597 102.154C349.883 102.475 350.281 102.635 350.793 102.635C351.035 102.635 351.291 102.587 351.56 102.492C351.837 102.397 352.084 102.258 352.301 102.076L352.847 103.428C352.587 103.653 352.249 103.831 351.833 103.961C351.417 104.082 351.005 104.143 350.598 104.143ZM358.235 104.143C356.441 104.143 355.544 103.272 355.544 101.53V99.086H354.335V97.617H355.544V95.745H357.507V97.617H359.392V99.086H357.507V101.452C357.507 101.816 357.589 102.089 357.754 102.271C357.927 102.453 358.2 102.544 358.573 102.544C358.685 102.544 358.802 102.531 358.924 102.505C359.054 102.479 359.192 102.444 359.34 102.401L359.626 103.831C359.444 103.926 359.227 104 358.976 104.052C358.724 104.113 358.477 104.143 358.235 104.143Z" fill="#393535"/>
    <path d="M101.777 31V21.835H103.792V25.514H108.056V21.835H110.071V31H108.056V27.191H103.792V31H101.777ZM115.469 31V23.499H112.44V21.835H120.513V23.499H117.484V31H115.469ZM122.89 31V21.835H124.567L127.661 27.464L130.742 21.835H132.393V31H130.56V25.41L128.194 29.622H127.063L124.71 25.449V31H122.89ZM135.617 31V21.835H137.632V29.297H141.87V31H135.617Z" fill="#393535"/>
    <path d="M100.171 171V161.835H106.359V163.408H102.186V165.644H106.073V167.217H102.186V171H100.171ZM108.703 163.382V161.549H110.822V163.382H108.703ZM108.781 171V164.617H110.744V171H108.781ZM116.692 173.483C116.077 173.483 115.501 173.418 114.963 173.288C114.435 173.158 113.971 172.954 113.572 172.677L114.105 171.338C114.452 171.555 114.842 171.719 115.275 171.832C115.717 171.953 116.133 172.014 116.523 172.014C117.633 172.014 118.187 171.503 118.187 170.48V169.752C118.014 170.081 117.741 170.346 117.368 170.545C116.996 170.744 116.588 170.844 116.146 170.844C115.574 170.844 115.076 170.714 114.651 170.454C114.227 170.185 113.897 169.813 113.663 169.336C113.429 168.859 113.312 168.3 113.312 167.659C113.312 167.026 113.429 166.472 113.663 165.995C113.897 165.518 114.227 165.15 114.651 164.89C115.076 164.621 115.574 164.487 116.146 164.487C116.606 164.487 117.017 164.587 117.381 164.786C117.745 164.985 118.014 165.25 118.187 165.579V164.617H120.098V170.259C120.098 171.334 119.808 172.14 119.227 172.677C118.647 173.214 117.802 173.483 116.692 173.483ZM116.731 169.375C117.165 169.375 117.511 169.223 117.771 168.92C118.04 168.617 118.174 168.196 118.174 167.659C118.174 167.122 118.04 166.706 117.771 166.411C117.511 166.108 117.165 165.956 116.731 165.956C116.289 165.956 115.938 166.108 115.678 166.411C115.418 166.706 115.288 167.122 115.288 167.659C115.288 168.196 115.418 168.617 115.678 168.92C115.938 169.223 116.289 169.375 116.731 169.375ZM123.013 171V164.617H124.937V165.54C125.128 165.211 125.388 164.955 125.717 164.773C126.055 164.582 126.445 164.487 126.887 164.487C127.338 164.487 127.719 164.587 128.031 164.786C128.352 164.985 128.595 165.289 128.759 165.696C128.959 165.315 129.245 165.02 129.617 164.812C129.999 164.595 130.419 164.487 130.878 164.487C131.606 164.487 132.148 164.708 132.503 165.15C132.859 165.583 133.036 166.255 133.036 167.165V171H131.073V167.23C131.073 166.805 131.004 166.498 130.865 166.307C130.735 166.108 130.51 166.008 130.189 166.008C129.817 166.008 129.526 166.138 129.318 166.398C129.11 166.658 129.006 167.026 129.006 167.503V171H127.043V167.23C127.043 166.805 126.974 166.498 126.835 166.307C126.697 166.108 126.471 166.008 126.159 166.008C125.787 166.008 125.496 166.138 125.288 166.398C125.08 166.658 124.976 167.026 124.976 167.503V171H123.013ZM138.063 171.143C137.586 171.143 137.166 171.052 136.802 170.87C136.438 170.688 136.148 170.441 135.931 170.129C135.723 169.817 135.619 169.466 135.619 169.076C135.619 168.617 135.74 168.248 135.983 167.971C136.226 167.694 136.62 167.499 137.166 167.386C137.712 167.265 138.436 167.204 139.337 167.204H139.805V166.983C139.805 166.602 139.718 166.333 139.545 166.177C139.372 166.012 139.077 165.93 138.661 165.93C138.314 165.93 137.946 165.986 137.556 166.099C137.175 166.203 136.793 166.363 136.412 166.58L135.879 165.267C136.104 165.12 136.377 164.985 136.698 164.864C137.027 164.743 137.37 164.652 137.725 164.591C138.08 164.522 138.418 164.487 138.739 164.487C139.727 164.487 140.464 164.712 140.949 165.163C141.434 165.605 141.677 166.294 141.677 167.23V171H139.844V170.038C139.714 170.376 139.493 170.645 139.181 170.844C138.878 171.043 138.505 171.143 138.063 171.143ZM138.505 169.83C138.869 169.83 139.177 169.704 139.428 169.453C139.679 169.202 139.805 168.877 139.805 168.478V168.218H139.35C138.683 168.218 138.21 168.279 137.933 168.4C137.656 168.513 137.517 168.712 137.517 168.998C137.517 169.241 137.599 169.44 137.764 169.596C137.937 169.752 138.184 169.83 138.505 169.83ZM99.6311 189V179.835H103.83C104.809 179.835 105.563 180.047 106.092 180.472C106.629 180.897 106.898 181.477 106.898 182.214C106.898 182.699 106.777 183.12 106.534 183.475C106.291 183.822 105.953 184.082 105.52 184.255C106.04 184.402 106.439 184.662 106.716 185.035C107.002 185.408 107.145 185.867 107.145 186.413C107.145 187.228 106.859 187.865 106.287 188.324C105.724 188.775 104.952 189 103.973 189H99.6311ZM101.555 183.605H103.479C104.467 183.605 104.961 183.224 104.961 182.461C104.961 181.707 104.467 181.33 103.479 181.33H101.555V183.605ZM101.555 187.505H103.7C104.22 187.505 104.601 187.405 104.844 187.206C105.087 187.007 105.208 186.703 105.208 186.296C105.208 185.897 105.087 185.598 104.844 185.399C104.601 185.2 104.22 185.1 103.7 185.1H101.555V187.505ZM112.024 189.143C111.548 189.143 111.127 189.052 110.763 188.87C110.399 188.688 110.109 188.441 109.892 188.129C109.684 187.817 109.58 187.466 109.58 187.076C109.58 186.617 109.702 186.248 109.944 185.971C110.187 185.694 110.581 185.499 111.127 185.386C111.673 185.265 112.397 185.204 113.298 185.204H113.766V184.983C113.766 184.602 113.68 184.333 113.506 184.177C113.333 184.012 113.038 183.93 112.622 183.93C112.276 183.93 111.907 183.986 111.517 184.099C111.136 184.203 110.755 184.363 110.373 184.58L109.84 183.267C110.066 183.12 110.339 182.985 110.659 182.864C110.989 182.743 111.331 182.652 111.686 182.591C112.042 182.522 112.38 182.487 112.7 182.487C113.688 182.487 114.425 182.712 114.91 183.163C115.396 183.605 115.638 184.294 115.638 185.23V189H113.805V188.038C113.675 188.376 113.454 188.645 113.142 188.844C112.839 189.043 112.466 189.143 112.024 189.143ZM112.466 187.83C112.83 187.83 113.138 187.704 113.389 187.453C113.641 187.202 113.766 186.877 113.766 186.478V186.218H113.311C112.644 186.218 112.172 186.279 111.894 186.4C111.617 186.513 111.478 186.712 111.478 186.998C111.478 187.241 111.561 187.44 111.725 187.596C111.899 187.752 112.146 187.83 112.466 187.83ZM120.911 189.143C120.348 189.143 119.824 189.078 119.338 188.948C118.853 188.818 118.45 188.64 118.129 188.415L118.597 187.141C118.918 187.34 119.282 187.501 119.689 187.622C120.105 187.735 120.517 187.791 120.924 187.791C121.288 187.791 121.557 187.735 121.73 187.622C121.904 187.501 121.99 187.345 121.99 187.154C121.99 186.851 121.769 186.66 121.327 186.582L119.962 186.335C119.416 186.24 119 186.045 118.714 185.75C118.428 185.455 118.285 185.07 118.285 184.593C118.285 184.16 118.407 183.787 118.649 183.475C118.892 183.163 119.226 182.92 119.65 182.747C120.075 182.574 120.565 182.487 121.119 182.487C121.579 182.487 122.025 182.548 122.458 182.669C122.892 182.782 123.264 182.964 123.576 183.215L123.082 184.476C122.822 184.285 122.51 184.129 122.146 184.008C121.791 183.887 121.457 183.826 121.145 183.826C120.755 183.826 120.474 183.891 120.3 184.021C120.127 184.142 120.04 184.298 120.04 184.489C120.04 184.792 120.244 184.983 120.651 185.061L122.016 185.308C122.58 185.403 123.009 185.594 123.303 185.88C123.598 186.157 123.745 186.539 123.745 187.024C123.745 187.691 123.485 188.211 122.965 188.584C122.445 188.957 121.761 189.143 120.911 189.143ZM126.153 181.382V179.549H128.272V181.382H126.153ZM126.231 189V182.617H128.194V189H126.231ZM134.181 189.143C133.488 189.143 132.881 189.009 132.361 188.74C131.85 188.463 131.456 188.073 131.178 187.57C130.901 187.067 130.762 186.474 130.762 185.789C130.762 185.104 130.901 184.515 131.178 184.021C131.456 183.527 131.85 183.15 132.361 182.89C132.881 182.621 133.488 182.487 134.181 182.487C134.589 182.487 135 182.548 135.416 182.669C135.832 182.79 136.17 182.964 136.43 183.189L135.884 184.541C135.668 184.368 135.425 184.233 135.156 184.138C134.888 184.034 134.628 183.982 134.376 183.982C133.865 183.982 133.466 184.142 133.18 184.463C132.903 184.775 132.764 185.221 132.764 185.802C132.764 186.374 132.903 186.825 133.18 187.154C133.466 187.475 133.865 187.635 134.376 187.635C134.619 187.635 134.875 187.587 135.143 187.492C135.421 187.397 135.668 187.258 135.884 187.076L136.43 188.428C136.17 188.653 135.832 188.831 135.416 188.961C135 189.082 134.589 189.143 134.181 189.143ZM141.091 189.143C140.528 189.143 140.004 189.078 139.518 188.948C139.033 188.818 138.63 188.64 138.309 188.415L138.777 187.141C139.098 187.34 139.462 187.501 139.869 187.622C140.285 187.735 140.697 187.791 141.104 187.791C141.468 187.791 141.737 187.735 141.91 187.622C142.084 187.501 142.17 187.345 142.17 187.154C142.17 186.851 141.949 186.66 141.507 186.582L140.142 186.335C139.596 186.24 139.18 186.045 138.894 185.75C138.608 185.455 138.465 185.07 138.465 184.593C138.465 184.16 138.587 183.787 138.829 183.475C139.072 183.163 139.406 182.92 139.83 182.747C140.255 182.574 140.745 182.487 141.299 182.487C141.759 182.487 142.205 182.548 142.638 182.669C143.072 182.782 143.444 182.964 143.756 183.215L143.262 184.476C143.002 184.285 142.69 184.129 142.326 184.008C141.971 183.887 141.637 183.826 141.325 183.826C140.935 183.826 140.654 183.891 140.48 184.021C140.307 184.142 140.22 184.298 140.22 184.489C140.22 184.792 140.424 184.983 140.831 185.061L142.196 185.308C142.76 185.403 143.189 185.594 143.483 185.88C143.778 186.157 143.925 186.539 143.925 187.024C143.925 187.691 143.665 188.211 143.145 188.584C142.625 188.957 141.941 189.143 141.091 189.143Z" fill="#393535"/>
    <path d="M260.061 180.143C259.342 180.143 258.661 180.052 258.02 179.87C257.387 179.688 256.859 179.441 256.434 179.129L257.019 177.543C257.426 177.829 257.89 178.054 258.41 178.219C258.939 178.384 259.489 178.466 260.061 178.466C260.685 178.466 261.131 178.371 261.4 178.18C261.677 177.981 261.816 177.734 261.816 177.439C261.816 177.188 261.721 176.988 261.53 176.841C261.339 176.694 261.006 176.568 260.529 176.464L259.06 176.152C257.422 175.805 256.603 174.956 256.603 173.604C256.603 173.023 256.759 172.516 257.071 172.083C257.383 171.641 257.816 171.299 258.371 171.056C258.934 170.813 259.584 170.692 260.321 170.692C260.954 170.692 261.547 170.783 262.102 170.965C262.657 171.147 263.116 171.403 263.48 171.732L262.895 173.214C262.184 172.651 261.322 172.369 260.308 172.369C259.762 172.369 259.337 172.477 259.034 172.694C258.739 172.902 258.592 173.175 258.592 173.513C258.592 173.764 258.683 173.968 258.865 174.124C259.047 174.28 259.363 174.406 259.814 174.501L261.283 174.813C262.964 175.177 263.805 176 263.805 177.283C263.805 177.855 263.649 178.358 263.337 178.791C263.034 179.216 262.6 179.549 262.037 179.792C261.482 180.026 260.824 180.143 260.061 180.143ZM266.478 180V170.835H272.757V172.408H268.402V174.553H272.471V176.139H268.402V178.427H272.757V180H266.478ZM279.965 180.143C279.064 180.143 278.271 179.948 277.586 179.558C276.91 179.159 276.382 178.609 276 177.907C275.628 177.196 275.441 176.364 275.441 175.411C275.441 174.458 275.628 173.63 276 172.928C276.382 172.217 276.91 171.667 277.586 171.277C278.262 170.887 279.055 170.692 279.965 170.692C280.875 170.692 281.668 170.887 282.344 171.277C283.029 171.667 283.558 172.217 283.93 172.928C284.312 173.63 284.502 174.453 284.502 175.398C284.502 176.351 284.312 177.183 283.93 177.894C283.558 178.605 283.029 179.159 282.344 179.558C281.668 179.948 280.875 180.143 279.965 180.143ZM279.965 178.427C280.728 178.427 281.322 178.163 281.746 177.634C282.18 177.097 282.396 176.356 282.396 175.411C282.396 174.458 282.184 173.721 281.759 173.201C281.335 172.672 280.737 172.408 279.965 172.408C279.211 172.408 278.618 172.672 278.184 173.201C277.76 173.721 277.547 174.458 277.547 175.411C277.547 176.356 277.76 177.097 278.184 177.634C278.618 178.163 279.211 178.427 279.965 178.427Z" fill="#393535"/>
</svg>        